<svg id="Medium_Board" data-name="Medium Board" xmlns="http://www.w3.org/2000/svg" width="320" height="320" viewBox="0 0 320 320">
  <rect id="Background" width="320" height="320" rx="20" fill="#ede8ca"/>
  <path id="Rectangle_1" data-name="Rectangle 1" d="M20,0H80a0,0,0,0,1,0,0V80a0,0,0,0,1,0,0H0a0,0,0,0,1,0,0V20A20,20,0,0,1,20,0Z" fill="#af9010"/>
  <rect id="Rectangle_2" data-name="Rectangle 2" width="80" height="80" transform="translate(160)" fill="#af9010"/>
  <rect id="Rectangle_3" data-name="Rectangle 3" width="80" height="80" transform="translate(80 80)" fill="#af9010"/>
  <rect id="Rectangle_4" data-name="Rectangle 4" width="80" height="80" transform="translate(240 80)" fill="#af9010"/>
  <rect id="Rectangle_5" data-name="Rectangle 5" width="80" height="80" transform="translate(0 160)" fill="#af9010"/>
  <rect id="Rectangle_6" data-name="Rectangle 6" width="80" height="80" transform="translate(160 160)" fill="#af9010"/>
  <rect id="Rectangle_7" data-name="Rectangle 7" width="80" height="80" transform="translate(80 240)" fill="#af9010"/>
  <path id="Rectangle_8" data-name="Rectangle 8" d="M0,0H80a0,0,0,0,1,0,0V60A20,20,0,0,1,60,80H0a0,0,0,0,1,0,0V0A0,0,0,0,1,0,0Z" transform="translate(240 240)" fill="#af9010"/>
</svg>
