<svg id="Title" xmlns="http://www.w3.org/2000/svg" width="788.807" height="148.153" viewBox="0 0 788.807 148.153">
  <path id="miniChess" d="M64.319,52.587q2.9-4.3,6.647-6.351t8.689-2.046q4.858,0,7.994,1.507t4.561,4.526q.719,1.523,1.084,3.877t.379,5.545q.013,3.191-.326,7.224t-1.032,8.917l-5.709,40.271H69.859l6.917-45.742q.584-3.859.652-6.429t-.38-3.859q-.892-2.568-4.265-2.568t-5.137,2.629q-1.769,2.638-2.97,10.227l-7.238,45.742H40.9l7.665-45.742q1.272-7.59.362-10.227t-4.28-2.629q-3.374,0-5.1,2.568t-3.08,10.288L28.48,116.056H11.733L24.659,45.814H38.933L37.7,52.83q2.381-4,6.474-6.322t8.634-2.318q4.553,0,7.9,2.438T64.319,52.587ZM116.6,45.814h38.868L149.5,101.483h25.191l-1.353,14.573H102.028l1.939-14.573h25.26l4.986-42.009H114.826Zm23.055-32.2h19.263l-2.15,20.064H137.275ZM255.038,69.818l-2.217,46.238H232.516L235.1,72.61q.448-7.548-1.694-10.776T226,58.618q-5.334,0-8.711,4.352-3.394,4.374-3.956,12.192l-2.94,40.894H190.09l5.855-70.242h19.5l-.732,10.179q2.489-5.65,7.737-8.732,5.229-3.071,12.326-3.071,5.327,0,9.259,1.59t6.483,4.776q2.57,3.21,3.7,8.021T255.038,69.818Zm26.817-24h38.868l-.558,55.669h25.191l.063,14.573H274.1l.524-14.573h25.26l.906-42.009H281.407Zm19.927-32.2h19.263l-.2,20.064H301.35Zm123.675,99.642q-4.767,2.347-10.087,3.522t-11.265,1.177q-5.262,0-9.928-.81t-8.728-2.428q-4.062-1.618-7.512-4.042t-6.283-5.649q-2.792-3.179-4.91-7.044t-3.556-8.411q-1.439-4.545-2.2-9.763t-.835-11.1q-.075-5.764.519-10.821t1.859-9.416q1.264-4.359,3.2-8.025t4.548-6.648q2.576-2.94,5.748-5.141t6.947-3.666q3.775-1.465,8.158-2.2t9.383-.732q5.617,0,10.817,1.055t9.811,3.172l.968,19.528q-5.289-4.206-10.154-6.151t-9.922-1.941q-5.408,0-9.426,1.923t-6.663,5.778q-2.669,3.89-3.9,9.7T381.006,68.7q.2,7.857,1.769,13.829t4.51,10.034q2.966,4.1,7.258,6.154t9.889,2.055q5.258,0,10.113-2.083t9.867-6.539Zm80.96-43.434,4.52,46.238H490.631L486.882,72.61q-.646-7.487-3.256-10.684t-7.867-3.186q-5.4,0-8.114,4.322-2.726,4.344-2.153,12.1l3.018,40.894H448.2l-5.991-96.1h19.2l2.66,36.04q1.666-5.65,6.465-8.732,4.782-3.071,11.878-3.071,5.327,0,9.491,1.59t7.179,4.776q3.038,3.21,4.868,8.021T506.417,69.818Zm92.192,42.653q-6.71,2.736-13.912,4.107t-15.456,1.373q-4.9,0-9.3-.613T551.65,115.5q-3.893-1.226-7.276-3.062t-6.249-4.281q-5.673-4.838-9-11.751t-4.292-15.868q-.918-8.516.767-15.193T531.58,53.8q2.125-2.407,4.747-4.21t5.747-3q3.124-1.2,6.754-1.8t7.772-.6q8.346,0,15.127,2.225T583.76,53.1q5.305,4.509,8.572,10.906t4.509,14.712l1.117,7.479h-52.07q1.069,8.372,6.886,12.525,5.844,4.172,16.441,4.172,7,0,13.523-1.864t13.315-5.887ZM575.822,72.424Q574.7,65.247,570.3,61.589q-4.374-3.643-11.933-3.643-6.817,0-10.405,3.765-3.6,3.782-3.514,10.775Zm88.547-24.5,2.991,15.6q-6.086-3.192-12.3-4.813t-12.138-1.619q-6.611,0-9.684,1.741t-2.493,5.183q.841,4.936,15.931,8.036l.782.186,5.943,1.243q11.343,2.367,17.438,7.654,6.132,5.319,7.912,14.459,1.081,5.55-.082,9.732t-4.566,6.984q-3.425,2.819-9.125,4.231t-13.657,1.412q-7.055,0-14.653-1.145t-15.558-3.425L618.464,96.87q7.273,3.521,14.537,5.384,7.279,1.866,13.794,1.866,7.139,0,10.461-1.931t2.644-5.575q-.656-3.57-3.587-5.476t-12.991-4.053l-5.755-1.137q-11.92-2.395-18.021-7.477Q613.482,73.418,612.14,65q-.792-4.964.559-8.807t4.846-6.576q3.474-2.716,8.754-4.072T638.68,44.19q6.36,0,12.859.932T664.368,47.925Zm82.73,0,3.748,15.6q-6.241-3.192-12.534-4.813T726.1,57.091q-6.611,0-9.6,1.741t-2.241,5.183q1.081,4.936,16.321,8.036l.791.186,6,1.243q11.458,2.367,17.81,7.654,6.39,5.319,8.614,14.459,1.35,5.55.39,9.732t-4.227,6.984q-3.288,2.819-8.919,4.231t-13.588,1.412q-7.055,0-14.708-1.145t-15.724-3.425L703.571,96.87q7.444,3.521,14.8,5.384,7.37,1.866,13.885,1.866,7.139,0,10.368-1.931T745,96.615q-.83-3.57-3.853-5.476t-13.188-4.053l-5.811-1.137q-12.036-2.395-18.384-7.477Q697.45,73.418,695.7,65q-1.033-4.964.131-8.807t4.527-6.576q3.342-2.716,8.556-4.072t12.316-1.356q6.36,0,12.9.932T747.1,47.925Z" transform="translate(0 0)" fill="#545d53"/>
</svg>
